<mxfile host="app.diagrams.net" modified="2023-03-03T08:23:31.918Z" agent="5.0 (Windows NT 10.0; Win64; x64) AppleWebKit/537.36 (KHTML, like Gecko) Chrome/109.0.0.0 Safari/537.36 OPR/95.0.0.0" etag="LK0J2Ma9ELjX9MAoJLnj" version="20.8.20" type="github">
  <diagram name="Page-1" id="Iup25K-bu8WR8GozyCn8">
    <mxGraphModel dx="1010" dy="550" grid="1" gridSize="10" guides="1" tooltips="1" connect="1" arrows="1" fold="1" page="1" pageScale="1" pageWidth="827" pageHeight="1169" math="0" shadow="0">
      <root>
        <mxCell id="0" />
        <mxCell id="1" parent="0" />
        <mxCell id="wqLyKsROrNyuXb8IowNP-3" style="edgeStyle=orthogonalEdgeStyle;rounded=0;orthogonalLoop=1;jettySize=auto;html=1;entryX=0.5;entryY=0;entryDx=0;entryDy=0;" edge="1" parent="1" source="wqLyKsROrNyuXb8IowNP-1" target="wqLyKsROrNyuXb8IowNP-2">
          <mxGeometry relative="1" as="geometry" />
        </mxCell>
        <mxCell id="wqLyKsROrNyuXb8IowNP-1" value="" style="strokeWidth=2;html=1;shape=mxgraph.flowchart.start_1;whiteSpace=wrap;" vertex="1" parent="1">
          <mxGeometry x="290" y="60" width="100" height="60" as="geometry" />
        </mxCell>
        <mxCell id="wqLyKsROrNyuXb8IowNP-2" value="" style="rhombus;whiteSpace=wrap;html=1;strokeWidth=2;" vertex="1" parent="1">
          <mxGeometry x="290" y="200" width="100" height="60" as="geometry" />
        </mxCell>
      </root>
    </mxGraphModel>
  </diagram>
</mxfile>
